<?xml version="1.0" standalone="no"?>
<!DOCTYPE svg PUBLIC "-//W3C//DTD SVG 20010904//EN"
 "http://www.w3.org/TR/2001/REC-SVG-20010904/DTD/svg10.dtd">
<svg version="1.0" xmlns="http://www.w3.org/2000/svg"
 width="483.000000pt" height="128.000000pt" viewBox="0 0 483.000000 128.000000"
 preserveAspectRatio="xMidYMid meet">

<g transform="translate(0.000000,128.000000) scale(0.100000,-0.100000)"
fill="#000000" stroke="none">
<path d="M63 1260 c-65 -39 -63 -23 -63 -622 0 -521 1 -544 20 -575 39 -65 23
-63 620 -63 597 0 581 -2 620 63 19 31 20 54 20 570 0 593 0 589 -62 627 -32
19 -49 20 -578 20 -523 0 -546 -1 -577 -20z m827 -370 l0 -40 -100 0 -100 0 0
-200 c0 -198 0 -200 23 -215 15 -10 35 -13 54 -9 26 5 31 2 36 -18 11 -37 8
-44 -18 -56 -36 -17 -91 -15 -130 4 -59 27 -65 56 -65 288 l0 206 -95 0 -95 0
0 40 0 40 245 0 245 0 0 -40z"/>
<path d="M2591 1077 c-17 -99 -16 -109 15 -105 23 3 30 13 55 83 16 44 29 81
29 83 0 1 -20 2 -44 2 l-44 0 -11 -63z"/>
<path d="M2525 881 c-88 -23 -135 -75 -135 -150 0 -37 5 -49 41 -84 24 -25 36
-43 29 -45 -7 -3 -26 -17 -43 -32 -25 -22 -31 -36 -34 -81 -4 -45 -1 -60 19
-89 63 -96 260 -119 370 -44 38 27 68 76 68 113 0 18 -6 21 -43 21 -40 0 -45
-3 -60 -36 -21 -42 -66 -64 -134 -64 -89 0 -144 55 -121 121 14 42 58 59 153
59 l75 0 0 40 0 40 -80 0 c-91 0 -124 12 -140 49 -27 67 33 116 133 109 55 -4
64 -8 92 -41 27 -32 38 -37 74 -37 33 0 41 3 41 19 0 31 -44 85 -89 110 -47
26 -158 37 -216 22z"/>
<path d="M4244 879 c-18 -5 -46 -22 -63 -38 l-31 -29 0 34 c0 34 0 34 -45 34
l-45 0 0 -280 0 -280 45 0 45 0 0 195 c0 218 5 240 63 275 36 23 100 26 137 7
14 -7 33 -28 42 -47 16 -31 18 -70 18 -342 l0 -308 45 0 45 0 0 324 c0 328 -4
369 -39 410 -40 47 -140 68 -217 45z"/>
<path d="M1820 840 l0 -40 90 0 90 0 0 -184 c0 -101 3 -197 6 -215 13 -65 80
-102 160 -87 39 8 49 24 40 61 -6 23 -10 25 -39 20 -21 -4 -39 -1 -52 9 -19
13 -20 28 -23 205 l-4 190 99 3 98 3 3 38 3 37 -235 0 -236 0 0 -40z"/>
<path d="M2947 873 c-4 -3 -7 -21 -7 -40 0 -29 3 -33 26 -33 47 0 66 -21 114
-123 87 -186 89 -148 -23 -372 -53 -108 -97 -197 -97 -200 0 -3 21 -5 48 -5
l47 0 73 146 c40 81 74 145 76 143 2 -2 26 -56 55 -120 59 -132 90 -168 150
-176 43 -6 44 -6 65 65 7 20 4 22 -27 22 -48 0 -67 25 -136 184 l-60 139 21
41 c12 23 52 105 89 184 l68 142 -47 0 -48 0 -64 -130 c-58 -116 -66 -128 -74
-108 -54 128 -100 211 -129 228 -31 19 -106 27 -120 13z"/>
<path d="M3500 873 c0 -4 44 -131 97 -280 l98 -273 36 0 37 0 31 88 c17 48 62
174 100 280 l68 192 -48 0 -49 0 -67 -210 c-37 -115 -69 -208 -71 -205 -2 2
-34 95 -71 207 l-67 203 -47 3 c-26 2 -47 -1 -47 -5z"/>
</g>
</svg>
